<svg width="122" height="122" viewBox="0 0 122 122" fill="none" xmlns="http://www.w3.org/2000/svg">
<g clip-path="url(#clip0_47_139)">
<path d="M103.7 2.03333H58.9667H18.3" stroke="#38B6FF" stroke-width="7.67" stroke-linecap="round" stroke-linejoin="round"/>
<path d="M103.7 2.03333L85.4 48.7782" stroke="#38B6FF" stroke-width="7.67" stroke-linecap="round" stroke-linejoin="round"/>
<path d="M18.3 2.03333L36.6 48.7782" stroke="#38B6FF" stroke-width="7.67" stroke-linecap="round" stroke-linejoin="round"/>
<path d="M61 115C82.3366 115 99.6334 98.4317 99.6334 77.9937C99.6334 57.5557 82.3366 40.9874 61 40.9874C39.6634 40.9874 22.3667 57.5557 22.3667 77.9937C22.3667 98.4317 39.6634 115 61 115Z" stroke="#38B6FF" stroke-width="7.67" stroke-linecap="round" stroke-linejoin="round"/>
<path d="M48.8 2.03333L52.8667 40.9873" stroke="#38B6FF" stroke-width="7.67" stroke-linecap="round" stroke-linejoin="round"/>
<path d="M73.2001 2.03333L69.1334 40.9873" stroke="#38B6FF" stroke-width="7.67" stroke-linecap="round" stroke-linejoin="round"/>
<path d="M62.9927 59.8801L66.6934 69.9692C66.8227 70.3555 67.0702 70.6957 67.4037 70.9457C67.7373 71.1958 68.1415 71.3441 68.564 71.3715L79.3 71.8C79.7843 71.7849 80.2602 71.9236 80.6537 72.1945C81.0471 72.4654 81.3359 72.8534 81.4751 73.298C81.6143 73.7425 81.5962 74.2187 81.4234 74.6524C81.2507 75.086 80.9331 75.4527 80.52 75.6954L72.102 82.3566C71.7811 82.6281 71.5434 82.9783 71.4144 83.3695C71.2855 83.7606 71.2701 84.1781 71.37 84.5769L74.298 94.9387C74.4231 95.3411 74.4172 95.7704 74.2811 96.1694C74.1449 96.5684 73.885 96.9182 73.536 97.1721C73.187 97.4261 72.7654 97.572 72.3276 97.5906C71.8898 97.6091 71.4564 97.4994 71.0854 97.276L62.1794 91.277C61.8328 91.0475 61.4214 90.9246 61 90.9246C60.5787 90.9246 60.1673 91.0475 59.8207 91.277L50.9147 97.1201C50.5437 97.3435 50.1103 97.4533 49.6725 97.4347C49.2347 97.4162 48.8131 97.2702 48.4641 97.0163C48.1151 96.7624 47.8552 96.4126 47.719 96.0136C47.5829 95.6146 47.577 95.1852 47.7021 94.7829L50.63 84.4211C50.73 84.0222 50.7146 83.6048 50.5857 83.2137C50.4567 82.8225 50.219 82.4723 49.8981 82.2007L41.4801 75.5396C41.067 75.2969 40.7494 74.9302 40.5767 74.4965C40.4039 74.0629 40.3858 73.5867 40.525 73.1422C40.6642 72.6976 40.953 72.3096 41.3464 72.0387C41.7399 71.7677 42.2158 71.6291 42.7001 71.6442L53.4361 71.2157C53.8586 71.1883 54.2628 71.0399 54.5964 70.7899C54.9299 70.5399 55.1774 70.1997 55.3067 69.8134L59.0074 59.7243C59.1696 59.335 59.4539 59.0034 59.8211 58.7754C60.1884 58.5474 60.6204 58.4342 61.0576 58.4513C61.4949 58.4684 61.9158 58.615 62.2624 58.8709C62.609 59.1268 62.8641 59.4794 62.9927 59.8801Z" stroke="#38B6FF" stroke-width="7.67" stroke-linecap="round" stroke-linejoin="round"/>
</g>
<defs>
<clipPath id="clip0_47_139">
<rect width="122" height="122" fill="white"/>
</clipPath>
</defs>
</svg>
