<svg width="122" height="122" viewBox="0 0 122 122" fill="none" xmlns="http://www.w3.org/2000/svg">
<path d="M108.656 81.6638L88.2212 61L105.454 43.7675C107.227 42.0033 108.633 39.9061 109.593 37.5966C110.553 35.287 111.048 32.8105 111.048 30.3094C111.048 27.8083 110.553 25.3318 109.593 23.0222C108.633 20.7126 107.227 18.6155 105.454 16.8513C101.881 13.2892 97.041 11.289 91.9956 11.289C86.9503 11.289 82.1107 13.2892 78.5375 16.8513L71.7512 23.5613L61 34.3125L40.26 13.3438C38.4655 11.5926 36.0574 10.6123 33.55 10.6123C31.0426 10.6123 28.6345 11.5926 26.84 13.3438L13.3437 26.84C12.4561 27.7254 11.7519 28.7772 11.2714 29.9351C10.7909 31.0931 10.5436 32.3344 10.5436 33.5881C10.5436 34.8418 10.7909 36.0832 11.2714 37.2412C11.7519 38.3991 12.4561 39.4509 13.3437 40.3363L34.3125 61L32.635 62.6775L25.8487 69.3875L12.505 97.295C11.6414 99.0771 11.3543 101.084 11.6836 103.037C12.0129 104.989 12.9422 106.791 14.3425 108.191C15.7428 109.592 17.5445 110.521 19.4972 110.85C21.4499 111.179 23.4567 110.892 25.2387 110.029L52.8412 96.685L56.5775 92.9488L59.5512 89.975L61 88.2213L81.435 108.656C83.2295 110.407 85.6376 111.388 88.145 111.388C90.6524 111.388 93.0604 110.407 94.855 108.656L108.351 95.16C109.259 94.2949 109.987 93.2591 110.494 92.1119C111.001 90.9648 111.277 89.729 111.305 88.4752C111.333 87.2214 111.114 85.9744 110.659 84.8055C110.205 83.6367 109.524 82.569 108.656 81.6638ZM91.9575 20.6638C94.4916 20.6556 96.928 21.6411 98.7437 23.4088C99.6313 24.2941 100.336 25.3459 100.816 26.5039C101.297 27.6618 101.544 28.9032 101.544 30.1569C101.544 31.4106 101.297 32.6519 100.816 33.8099C100.336 34.9679 99.6313 36.0196 98.7437 36.905L85.2475 23.79C87.0444 22.0407 89.4498 21.0567 91.9575 21.045V20.6638ZM20.0537 33.55L33.55 20.13L39.8025 26.3825L33.1687 33.0925L39.8787 39.8025L46.5887 33.0925L54.2137 40.7175L41.0225 54.5188L20.0537 33.55ZM21.045 101.489L33.0162 76.86L45.75 89.5175L21.045 101.489ZM52.8412 83.1888L39.345 69.6925L78.5375 30.5L91.9575 43.92L52.8412 83.1888ZM88.45 101.87L68.015 81.5113L81.5112 68.015L88.6025 75.1063L81.8925 81.8163L88.6025 88.6025L95.3887 81.8163L101.946 88.45L88.45 101.87Z" fill="#38B6FF"/>
</svg>
