<svg width="80" height="80" viewBox="0 0 80 80" fill="none" xmlns="http://www.w3.org/2000/svg">
<g clip-path="url(#clip0_96_290)">
<path d="M43.3332 23.3333H13.3333V20H43.3332V23.3333ZM53.3332 26.6667H13.3333V30H53.3332V26.6667ZM43.3332 33.3333H26.6666V36.6667H43.3332V33.3333ZM59.9999 33.3333H46.6666V36.6667H59.9999V33.3333ZM26.6666 43.3333H39.9999V40H26.6666V43.3333ZM56.6666 40H43.3332V43.3333H56.6666V40ZM26.6666 50H39.9999V46.6667H26.6666V50ZM56.6666 46.6667H43.3332V50H56.6666V46.6667ZM59.9999 20H46.6666V23.3333H59.9999V20ZM13.3333 56.6667H39.9999V53.3333H13.3333V56.6667ZM43.3332 56.6667H63.3332V53.3333H43.3332V56.6667ZM56.6666 30H66.6666V26.6667H56.6666V30ZM76.6666 15V65C76.6666 66.3261 76.1398 67.5978 75.2021 68.5355C74.2644 69.4732 72.9927 70 71.6666 70H8.33325C7.00717 70 5.7354 69.4732 4.79772 68.5355C3.86004 67.5978 3.33325 66.3261 3.33325 65V15C3.33325 13.6739 3.86004 12.4021 4.79772 11.4645C5.7354 10.5268 7.00717 10 8.33325 10H71.6666C72.9927 10 74.2644 10.5268 75.2021 11.4645C76.1398 12.4021 76.6666 13.6739 76.6666 15ZM73.3332 15.8333C73.3332 15.1703 73.0699 14.5344 72.601 14.0656C72.1322 13.5967 71.4963 13.3333 70.8332 13.3333H9.16658C8.50354 13.3333 7.86766 13.5967 7.39882 14.0656C6.92998 14.5344 6.66658 15.1703 6.66658 15.8333V64.1667C6.66658 64.8297 6.92998 65.4656 7.39882 65.9344C7.86766 66.4033 8.50354 66.6667 9.16658 66.6667H70.8332C71.4963 66.6667 72.1322 66.4033 72.601 65.9344C73.0699 65.4656 73.3332 64.8297 73.3332 64.1667V15.8333Z" fill="#38B6FF"/>
</g>
<defs>
<clipPath id="clip0_96_290">
<rect width="80" height="80" fill="white"/>
</clipPath>
</defs>
</svg>
