<svg width="80" height="80" viewBox="0 0 80 80" fill="none" xmlns="http://www.w3.org/2000/svg">
<path d="M12 24H4C1.6 24 0 22.4 0 20C0 17.6 1.6 16 4 16H12V24Z" fill="#38B6FF"/>
<path d="M76 24H44V16H76C78.4 16 80 17.6 80 20C80 22.4 78.4 24 76 24Z" fill="#38B6FF"/>
<path d="M32 4H24C21.6 4 20 5.6 20 8V32C20 34.4 21.6 36 24 36H32C34.4 36 36 34.4 36 32V8C36 5.6 34.4 4 32 4Z" fill="#38B6FF"/>
<path d="M56 44H48C45.6 44 44 45.6 44 48V72C44 74.4 45.6 76 48 76H56C58.4 76 60 74.4 60 72V48C60 45.6 58.4 44 56 44Z" fill="#38B6FF"/>
<path d="M76 64H68V56H76C78.4 56 80 57.6 80 60C80 62.4 78.4 64 76 64Z" fill="#38B6FF"/>
<path d="M36 64H4C1.6 64 0 62.4 0 60C0 57.6 1.6 56 4 56H36V64Z" fill="#38B6FF"/>
</svg>
