<svg width="80" height="80" viewBox="0 0 80 80" fill="none" xmlns="http://www.w3.org/2000/svg">
<g clip-path="url(#clip0_96_284)">
<path d="M10 5.00002C8.67392 5.00002 7.40215 5.5268 6.46447 6.46449C5.52679 7.40217 5 8.67394 5 10C5 11.3261 5.52679 12.5979 6.46447 13.5356C7.40215 14.4732 8.67392 15 10 15C11.3261 15 12.5979 14.4732 13.5355 13.5356C14.4732 12.5979 15 11.3261 15 10C15 8.67394 14.4732 7.40217 13.5355 6.46449C12.5979 5.5268 11.3261 5.00002 10 5.00002ZM4.8892e-06 10C-0.00240239 7.56436 0.884214 5.21155 2.49344 3.3832C4.10267 1.55486 6.32386 0.376685 8.74012 0.0698194C11.1564 -0.237046 13.6016 0.348496 15.6167 1.71654C17.6319 3.08459 19.0785 5.14108 19.685 7.50002H60.315C60.7563 5.79335 61.6409 4.23367 62.8792 2.97902C64.1174 1.72436 65.6654 0.819328 67.3661 0.355625C69.0668 -0.108079 70.8599 -0.113973 72.5636 0.338541C74.2673 0.791054 75.8212 1.68589 77.0676 2.93238C78.3141 4.17887 79.209 5.7327 79.6615 7.43643C80.114 9.14016 80.1081 10.9332 79.6444 12.6339C79.1807 14.3347 78.2757 15.8826 77.021 17.1208C75.7664 18.3591 74.2067 19.2437 72.5 19.685V60.315C74.2067 60.7563 75.7664 61.6409 77.021 62.8792C78.2757 64.1175 79.1807 65.6654 79.6444 67.3661C80.1081 69.0668 80.114 70.8599 79.6615 72.5636C79.209 74.2673 78.3141 75.8212 77.0676 77.0677C75.8212 78.3141 74.2673 79.209 72.5636 79.6615C70.8599 80.114 69.0668 80.1081 67.3661 79.6444C65.6654 79.1807 64.1174 78.2757 62.8792 77.021C61.6409 75.7664 60.7563 74.2067 60.315 72.5H19.685C19.2437 74.2067 18.3591 75.7664 17.1208 77.021C15.8826 78.2757 14.3346 79.1807 12.6339 79.6444C10.9332 80.1081 9.14014 80.114 7.43641 79.6615C5.73269 79.209 4.17885 78.3141 2.93236 77.0677C1.68588 75.8212 0.791039 74.2673 0.338526 72.5636C-0.113988 70.8599 -0.108094 69.0668 0.355609 67.3661C0.819313 65.6654 1.72435 64.1175 2.979 62.8792C4.23365 61.6409 5.79334 60.7563 7.5 60.315V19.685C5.35302 19.1307 3.45118 17.8785 2.09353 16.1253C0.735885 14.3721 -0.000558673 12.2174 4.8892e-06 10ZM12.5 19.685V60.315C16.015 61.215 18.78 63.985 19.685 67.5H60.315C60.7633 65.7706 61.6659 64.1925 62.9292 62.9292C64.1925 61.6659 65.7706 60.7633 67.5 60.315V19.685C65.7706 19.2367 64.1925 18.3341 62.9292 17.0708C61.6659 15.8075 60.7633 14.2294 60.315 12.5H19.685C19.2367 14.2294 18.3341 15.8075 17.0708 17.0708C15.8075 18.3341 14.2294 19.2367 12.5 19.685ZM70 5.00002C68.6739 5.00002 67.4022 5.5268 66.4645 6.46449C65.5268 7.40217 65 8.67394 65 10C65 11.3261 65.5268 12.5979 66.4645 13.5356C67.4022 14.4732 68.6739 15 70 15C71.3261 15 72.5979 14.4732 73.5355 13.5356C74.4732 12.5979 75 11.3261 75 10C75 8.67394 74.4732 7.40217 73.5355 6.46449C72.5979 5.5268 71.3261 5.00002 70 5.00002ZM10 65C8.67392 65 7.40215 65.5268 6.46447 66.4645C5.52679 67.4022 5 68.6739 5 70C5 71.3261 5.52679 72.5979 6.46447 73.5356C7.40215 74.4732 8.67392 75 10 75C11.3261 75 12.5979 74.4732 13.5355 73.5356C14.4732 72.5979 15 71.3261 15 70C15 68.6739 14.4732 67.4022 13.5355 66.4645C12.5979 65.5268 11.3261 65 10 65ZM70 65C68.6739 65 67.4022 65.5268 66.4645 66.4645C65.5268 67.4022 65 68.6739 65 70C65 71.3261 65.5268 72.5979 66.4645 73.5356C67.4022 74.4732 68.6739 75 70 75C71.3261 75 72.5979 74.4732 73.5355 73.5356C74.4732 72.5979 75 71.3261 75 70C75 68.6739 74.4732 67.4022 73.5355 66.4645C72.5979 65.5268 71.3261 65 70 65Z" fill="#38B6FF"/>
</g>
<defs>
<clipPath id="clip0_96_284">
<rect width="80" height="80" fill="white"/>
</clipPath>
</defs>
</svg>
