<svg width="80" height="80" viewBox="0 0 80 80" fill="none" xmlns="http://www.w3.org/2000/svg">
<path d="M14.5249 67.975C14.1959 67.9769 13.8698 67.9138 13.5652 67.7894C13.2606 67.665 12.9835 67.4817 12.7499 67.25C12.4573 66.9614 12.2403 66.6051 12.1182 66.2126C11.9961 65.8202 11.9727 65.4037 12.0499 65L15.1999 44.175C15.2774 43.6454 15.5228 43.1547 15.8999 42.775L46.3499 12.5C47.7806 11.1425 49.6777 10.3857 51.6499 10.3857C53.6222 10.3857 55.5193 11.1425 56.95 12.5L67.5 23.05C68.9045 24.4562 69.6934 26.3625 69.6934 28.35C69.6934 30.3375 68.9045 32.2437 67.5 33.65L37.1249 64.1C36.7452 64.4772 36.2545 64.7225 35.7249 64.8L14.9999 67.95L14.5249 67.975ZM19.9999 45.85L17.4999 62.5L34.1499 60L64.15 30.15C64.3817 29.9164 64.565 29.6393 64.6894 29.3348C64.8138 29.0302 64.8769 28.704 64.875 28.375C64.8722 27.7191 64.6118 27.0906 64.15 26.625L53.4 15.975C52.9315 15.5094 52.2979 15.248 51.6375 15.248C50.977 15.248 50.3434 15.5094 49.875 15.975L19.9999 45.85Z" fill="#38B6FF"/>
<path d="M62.2499 37.925C61.9209 37.9269 61.5948 37.8638 61.2902 37.7394C60.9856 37.615 60.7085 37.4317 60.4749 37.2L42.7999 19.525C42.5668 19.2919 42.3819 19.0152 42.2558 18.7106C42.1296 18.406 42.0647 18.0796 42.0647 17.75C42.0647 17.4203 42.1296 17.0939 42.2558 16.7894C42.3819 16.4848 42.5668 16.2081 42.7999 15.975C43.033 15.7419 43.3097 15.557 43.6143 15.4308C43.9189 15.3047 44.2453 15.2397 44.5749 15.2397C44.9046 15.2397 45.231 15.3047 45.5355 15.4308C45.8401 15.557 46.1168 15.7419 46.3499 15.975L64.0249 33.65C64.2592 33.8824 64.4452 34.1589 64.5722 34.4635C64.6991 34.7682 64.7644 35.0949 64.7644 35.425C64.7644 35.755 64.6991 36.0818 64.5722 36.3864C64.4452 36.6911 64.2592 36.9676 64.0249 37.2C63.7913 37.4317 63.5143 37.615 63.2097 37.7394C62.9051 37.8638 62.5789 37.9269 62.2499 37.925Z" fill="#38B6FF"/>
<path d="M62.5 75H12.5C11.837 75 11.2011 74.7366 10.7322 74.2677C10.2634 73.7989 10 73.163 10 72.5C10 71.8369 10.2634 71.201 10.7322 70.7322C11.2011 70.2634 11.837 70 12.5 70H62.5C63.163 70 63.7989 70.2634 64.2678 70.7322C64.7366 71.201 65 71.8369 65 72.5C65 73.163 64.7366 73.7989 64.2678 74.2677C63.7989 74.7366 63.163 75 62.5 75Z" fill="#38B6FF"/>
<path d="M28.6499 37.075L15.9499 49.425C12.9999 52.35 14.0999 60.05 17.0249 62.975C19.9499 65.9 27.9499 66.625 30.8749 63.7L45.8749 48.45C45.8749 48.45 31.5499 54.85 28.1999 51.1C24.8499 47.35 28.6499 37.075 28.6499 37.075Z" fill="#38B6FF"/>
</svg>
