<svg width="80" height="80" viewBox="0 0 80 80" fill="none" xmlns="http://www.w3.org/2000/svg">
<g clip-path="url(#clip0_96_297)">
<path d="M56.6666 20V54.2642L61.6666 59.301L66.6666 54.2642V20H56.6666ZM56.6666 16.6667H66.6666V10.0491H56.6666V16.6667ZM69.9999 23.3334V54.951C69.9999 55.3909 69.826 55.8129 69.5161 56.1251L62.8494 62.8409C62.1976 63.4975 61.1356 63.4975 60.4838 62.8409L53.8171 56.1251C53.5072 55.8129 53.3332 55.3909 53.3332 54.951V46.6667H51.6666C48.9052 46.6667 46.6666 44.4281 46.6666 41.6667V31.6667C46.6666 28.9053 48.9052 26.6667 51.6666 26.6667H53.3332V23.3334H19.9999V48.3334C19.9999 49.2538 19.2537 50 18.3333 50H16.6666C11.1437 50 6.66658 54.4772 6.66658 60C6.66658 65.5229 11.1437 70 16.6666 70H73.3332V23.3334H69.9999ZM69.9999 20H74.9999C75.9204 20 76.6666 20.7462 76.6666 21.6667V71.6667C76.6666 72.5872 75.9204 73.3334 74.9999 73.3334H16.6666C9.30279 73.3334 3.33325 67.3638 3.33325 60V21.6667C3.33325 13.3824 10.049 6.66669 18.3333 6.66669C19.2537 6.66669 19.9999 7.41288 19.9999 8.33335V20H53.3332V8.38242C53.3332 7.46194 54.0794 6.71575 54.9999 6.71575H68.3332C69.2537 6.71575 69.9999 7.46194 69.9999 8.38242V20ZM53.3332 30H51.6666C50.7461 30 49.9999 30.7462 49.9999 31.6667V41.6667C49.9999 42.5872 50.7461 43.3334 51.6666 43.3334H53.3332V30ZM6.66658 51.1806C9.10973 48.4125 12.6843 46.6667 16.6666 46.6667V10.1182C11.0128 10.9269 6.66658 15.7892 6.66658 21.6667V51.1806ZM28.3333 26.6667H38.3332C41.0947 26.6667 43.3332 28.9053 43.3332 31.6667V41.6667C43.3332 44.4281 41.0947 46.6667 38.3332 46.6667H28.3333C25.5718 46.6667 23.3333 44.4281 23.3333 41.6667V31.6667C23.3333 28.9053 25.5718 26.6667 28.3333 26.6667ZM28.3333 30C27.4128 30 26.6666 30.7462 26.6666 31.6667V41.6667C26.6666 42.5872 27.4128 43.3334 28.3333 43.3334H38.3332C39.2537 43.3334 39.9999 42.5872 39.9999 41.6667V31.6667C39.9999 30.7462 39.2537 30 38.3332 30H28.3333ZM24.9999 56.6667C24.0794 56.6667 23.3333 55.9205 23.3333 55C23.3333 54.0795 24.0794 53.3334 24.9999 53.3334H48.3332C49.2537 53.3334 49.9999 54.0795 49.9999 55C49.9999 55.9205 49.2537 56.6667 48.3332 56.6667H24.9999ZM24.9999 63.3334C24.0794 63.3334 23.3333 62.5872 23.3333 61.6667C23.3333 60.7462 24.0794 60 24.9999 60H51.6666C52.5871 60 53.3332 60.7462 53.3332 61.6667C53.3332 62.5872 52.5871 63.3334 51.6666 63.3334H24.9999Z" fill="#38B6FF"/>
</g>
<defs>
<clipPath id="clip0_96_297">
<rect width="80" height="80" fill="white"/>
</clipPath>
</defs>
</svg>
